<svg id="Layer_2" data-name="Layer 2" xmlns="http://www.w3.org/2000/svg" viewBox="0 0 209.63 212.69"><defs><style>.cls-1,.cls-2,.cls-3{fill:none;stroke:#fff;}.cls-1,.cls-2{stroke-linecap:round;stroke-width:5px;}.cls-1{stroke-miterlimit:5;}.cls-2{stroke-linejoin:round;}.cls-3{stroke-miterlimit:10;stroke-width:2px;}</style></defs><path class="cls-1" d="M297.19,301.59c38.63,6.8,45.24-22.95,41.22-34.4-3.2-13.4-32.77-41.64-33-41.87C289.88,208.8,285.61,192,292.6,168c22.6-62.91,75.22-51.25,66.35-12.28-15.17,66.68-97.77,140.57-105.31,142.1" transform="translate(-251.14 -121.15)"/><path class="cls-2" d="M348.52,206.91c3.1,2,84-11,109.75-24.46" transform="translate(-251.14 -121.15)"/><path class="cls-2" d="M347.83,281.24a65,65,0,0,1,13-13,.27.27,0,0,1,.44.3c-15.84,37-8.69,56.53,9.26,5.77a.3.3,0,0,1,.59.11l.11,28.28.35,28.66" transform="translate(-251.14 -121.15)"/><path class="cls-2" d="M371.24,302.33c26-36,25.17-149.36,25.17-158.68" transform="translate(-251.14 -121.15)"/><path class="cls-3" d="M433.46,107.3" transform="translate(-251.14 -121.15)"/><path class="cls-2" d="M450.58,295.69s-11.53,8-15,4.89,2.54-22.76-4.19-23.07c-4.59-.2-5.94,23.77-12.93,19.58s-3.75-83.41,1.05-152.74l-9.09,83.58c-13.65,99.54-17.59,91.17-18-3.37" transform="translate(-251.14 -121.15)"/></svg>